<?xml version="1.0" encoding="UTF-8" standalone="no"?>
<!-- Created with Inkscape (http://www.inkscape.org/) -->

<svg
   xmlns:dc="http://purl.org/dc/elements/1.1/"
   xmlns:cc="http://creativecommons.org/ns#"
   xmlns:rdf="http://www.w3.org/1999/02/22-rdf-syntax-ns#"
   xmlns:svg="http://www.w3.org/2000/svg"
   xmlns="http://www.w3.org/2000/svg"
   xmlns:sodipodi="http://sodipodi.sourceforge.net/DTD/sodipodi-0.dtd"
   xmlns:inkscape="http://www.inkscape.org/namespaces/inkscape"
   height="186.13055mm"
   width="88.917229mm"
   viewBox="0 0 315.06105 659.51771"
   id="svg2"
   version="1.1"
   inkscape:version="0.91 r13725"
   sodipodi:docname="silhouette-walk1.svg"
   inkscape:export-filename="/home/algot/Documents/runeman.org/clipart/silhouette-walk1.png"
   inkscape:export-xdpi="40.939007"
   inkscape:export-ydpi="40.939007">
  <title
     id="title3181">Silhouette Man Walking 1</title>
  <defs
     id="defs8" />
  <sodipodi:namedview
     pagecolor="#ffffff"
     bordercolor="#666666"
     borderopacity="1"
     objecttolerance="10"
     gridtolerance="10"
     guidetolerance="10"
     inkscape:pageopacity="0"
     inkscape:pageshadow="2"
     inkscape:window-width="1366"
     inkscape:window-height="712"
     id="namedview6"
     showgrid="false"
     inkscape:zoom="2.6350923"
     inkscape:cx="283.74442"
     inkscape:cy="563.45038"
     inkscape:window-x="0"
     inkscape:window-y="0"
     inkscape:window-maximized="1"
     inkscape:current-layer="svg2"
     fit-margin-top="0"
     fit-margin-left="0"
     fit-margin-right="0"
     fit-margin-bottom="0" />
  <metadata
     id="metadata4">
    <rdf:RDF>
      <cc:Work
         rdf:about="">
        <dc:format>image/svg+xml</dc:format>
        <dc:type
           rdf:resource="http://purl.org/dc/dcmitype/StillImage" />
        <dc:title>Silhouette Man Walking 1</dc:title>
        <dc:date>2016-12-05</dc:date>
        <dc:creator>
          <cc:Agent>
            <dc:title>Algot Runeman</dc:title>
          </cc:Agent>
        </dc:creator>
        <dc:rights>
          <cc:Agent>
            <dc:title>Algot Runeman</dc:title>
          </cc:Agent>
        </dc:rights>
        <dc:publisher>
          <cc:Agent>
            <dc:title>runeman.org</dc:title>
          </cc:Agent>
        </dc:publisher>
        <dc:identifier>silhouette-walk1.svg</dc:identifier>
        <cc:license
           rdf:resource="http://creativecommons.org/publicdomain/zero/1.0/" />
      </cc:Work>
      <cc:License
         rdf:about="http://creativecommons.org/publicdomain/zero/1.0/">
        <cc:permits
           rdf:resource="http://creativecommons.org/ns#Reproduction" />
        <cc:permits
           rdf:resource="http://creativecommons.org/ns#Distribution" />
        <cc:permits
           rdf:resource="http://creativecommons.org/ns#DerivativeWorks" />
      </cc:License>
    </rdf:RDF>
  </metadata>
  <g
     id="g3176"
     transform="matrix(0.57035704,0,0,0.57035704,-100.33568,22.070916)">
    <path
       inkscape:connector-curvature="0"
       id="path3151"
       d="m 449.16479,159.91688 -9.80709,-17.65276 -1.96142,-17.65276 -19.61419,0 -11.7685,-1.96142 -1.96142,-1.96142 c 0,0 -2.70196,-9.16652 -1.96142,-13.72993 0.46836,-2.88615 3.92284,-7.845672 3.92284,-7.845672 l 0,-5.884255 0,-11.76851 0,-7.845673 c 0,0 -10.49375,3.236176 -13.72993,0 -0.92462,-0.924622 0,-3.922837 0,-3.922837 0,-3.26903 0.21786,-8.729398 1.33072,-11.803174 1.73834,-4.801392 8.47637,-9.772427 8.47637,-9.772427 l 0,-15.691346 7.84567,-29.4212742 c 0,0 -8.59002,-2.27143635 -9.80709,-5.8842549 -2.24805,-6.6732241 3.22327,-14.3020189 7.84567,-19.6141829 6.9203,-7.952968 17.17439,-13.378491 27.45986,-15.691346 8.31691,-1.870192 17.02987,0.9857 25.49844,1.961418 8.54296,0.984289 17.26428,1.44297 25.49843,3.922837 8.9634,2.699494 18.26211,5.830045 25.49844,11.768509 6.87428,5.641351 12.21416,13.3908772 15.69135,21.5756015 4.41317,10.3878645 5.88425,33.3441105 5.88425,33.3441105 l -5.88425,21.575601 -11.76851,35.30553 -5.88426,25.498435 17.65277,19.61419 z"
       style="fill:#000000;fill-rule:evenodd;stroke:#000000;stroke-width:1px;stroke-linecap:butt;stroke-linejoin:miter;stroke-opacity:1"
       sodipodi:nodetypes="ccccccsccccssscccssssssscccccc" />
    <path
       inkscape:connector-curvature="0"
       id="path3153"
       d="m 447.20337,154.03263 -21.5756,25.49844 -1.96142,11.76851 5.88425,9.80709 c 0,0 -25.39772,50.81745 -29.42127,78.45673 -4.05976,27.88805 5.88426,84.34099 5.88426,84.34099 l -13.72993,11.76851 3.92283,5.88425 -45.11262,45.11262 -25.49843,19.61418 -13.72993,7.84568 -27.45986,3.92283 -25.49844,19.61419 -11.76851,5.88425 1.96142,7.84567 5.88426,0 -5.88426,1.96142 7.84568,11.76851 7.84567,0 1.96142,5.88426 11.76851,1.96142 5.88425,-7.84568 0,11.76851 7.84567,0 15.69135,-13.72993 21.5756,-17.65276 7.84568,-7.84567 68.64964,-41.18979 9.80709,121.60794 176.52764,23.53702 7.84568,-105.91659 3.92283,-60.80397 9.80709,-64.7268 7.84568,7.84567 11.76851,72.57248 -3.88426,58.84255 3.88426,17.65276 -7.84568,29.42128 1.96142,43.1512 13.72993,14.56245 3.92284,0 0,-22.40813 3.92283,21.57561 7.84568,0 3.92283,-25.49844 1.96142,19.61418 11.76851,-3.92284 -3.92284,-27.45985 7.84568,19.61418 7.84567,0 -9.80709,-56.88113 -7.84567,-25.49844 3.92283,-41.18978 0,-94.14808 c 0,0 7.49554,2.31155 9.80709,0 9.70852,-9.70852 0,-41.18978 0,-41.18978 0,0 -2.15341,-9.46272 -5.88425,-11.76851 -3.89312,-2.40608 -13.72993,0 -13.72993,0 l 0,-27.45986 -25.49844,-25.49844 c 0,0 5.34131,-12.79187 1.96142,-17.65276 -1.53893,-2.21326 -7.84567,-1.96142 -7.84567,-1.96142 0,0 -15.62399,-46.65472 -31.38269,-64.7268 -9.2957,-10.66032 -35.30553,-23.53702 -35.30553,-23.53702 l -35.30553,-11.76851 z"
       style="fill:#000000;fill-rule:evenodd;stroke:#000000;stroke-width:1px;stroke-linecap:butt;stroke-linejoin:miter;stroke-opacity:1"
       sodipodi:nodetypes="ccccscccccccccccccccccccccccccccccccccccccccccccccccccscscccscsccc" />
    <path
       inkscape:connector-curvature="0"
       id="path3155"
       d="m 415.22856,556.75408 -3.33072,36.63625 -21.5756,49.03545 -31.38269,88.26383 c 0,0 -11.33061,12.00267 -13.72993,19.61418 -2.35872,7.48272 0,23.53702 0,23.53702 l 1.96142,15.69134 -1.96142,11.76851 0,11.76851 -35.30553,149.06779 5.88425,49.03544 -5.88425,5.8843 -11.76851,-5.8843 -21.5756,25.4985 -41.18979,13.7299 -47.07403,-1.9614 -3.92284,5.8842 -3.92284,1.9614 -3.92283,13.73 c 0,0 51.33084,21.8111 78.45673,27.4598 17.32938,3.6087 52.95829,3.9229 52.95829,3.9229 l 0,9.8071 56.88113,5.8842 7.84567,-23.537 -3.92283,-1.9614 11.76851,-62.7654 -5.88426,-1.9614 15.69135,-31.38273 39.22836,-147.10637 0,-29.42127 c 0,0 12.95888,-14.51229 15.69135,-23.53702 1.70516,-5.63178 0,-17.65277 0,-17.65277 l -3.92284,-7.84567 50.99688,-72.57248 35.30553,103.95517 25.49844,37.26695 9.80709,25.49844 7.84567,9.80709 c 0,0 8.7818,42.92472 17.65277,62.76539 3.47948,7.78215 13.72992,21.5756 13.72992,21.5756 l 21.5756,41.18978 -3.92283,11.76849 7.84567,21.5756 -11.76851,19.6142 -31.38269,33.3441 -37.26695,1.9614 -9.80709,3.9229 0,5.8842 -3.92284,1.9614 0,5.8843 c 20.92258,4.016 36.48009,9.5649 84.34099,5.8843 l 33.34411,-13.73 11.76851,0 0,7.8457 64.7268,-15.6913 -15.69134,-54.9198 -11.76851,-45.11258 -9.80709,-13.72993 -17.65277,-58.84255 c 0,0 -15.94249,-59.8714 -31.38269,-86.3024 -3.04048,-5.20479 -11.76851,-13.72993 -11.76851,-13.72993 0,0 -4.60958,-19.24675 -9.80709,-27.45986 -2.4722,-3.90657 -9.80709,-9.80709 -9.80709,-9.80709 0,0 -1.10661,-13.57059 -3.92284,-19.61418 -1.76825,-3.79463 -7.84567,-9.80709 -7.84567,-9.80709 l -3.92284,-31.38269 -3.92284,-19.61419 -7.84567,-70.61106 0,-15.69134 9.80709,-33.20546 z"
       style="fill:#000000;fill-rule:evenodd;stroke:#000000;stroke-width:1px;stroke-linecap:butt;stroke-linejoin:miter;stroke-opacity:1"
       sodipodi:nodetypes="ccccsccccccccccccccsccccccccccscccccccsccccccccccccccccccccscscsccccccc" />
  </g>
</svg>
