<?xml version="1.0" encoding="utf-8"?>
<!-- Generator: Adobe Illustrator 24.1.1, SVG Export Plug-In . SVG Version: 6.00 Build 0)  -->
<svg version="1.1" id="Layer_1" xmlns="http://www.w3.org/2000/svg" xmlns:xlink="http://www.w3.org/1999/xlink" x="0px" y="0px"
	 viewBox="0 0 512 512" style="enable-background:new 0 0 512 512;" xml:space="preserve">
<g id="XMLID_1_">
	<path id="XMLID_5_" d="M287.2,512c-6.5,0-13-2.8-16.8-7.4c-3.7-3.7-7.4-9.3-7.4-19.5V357.5h-14.9V485c0,10.2-4.7,16.8-7.4,19.5
		c-4.7,4.7-11.2,6.5-17.7,6.5s-13-2.8-17.7-6.5c-3.7-3.7-7.4-9.3-7.4-19.5V357.5h-46.5l47.5-181.5h-7.4l-26.1,96.8
		c-4.7,14-14.9,18.6-23.3,18.6c-7.4,0-14-3.7-17.7-9.3c-4.7-6.5-6.5-15.8-3.7-25.1l30.7-110.8c4.7-15.8,22.3-41,52.1-41.9h105.2
		c30.7,0.9,47.5,27.9,52.1,41.9l0,0l30.7,111.7c2.8,9.3,0.9,18.6-3.7,26.1c-4.7,5.6-11.2,9.3-17.7,9.3c-8.4,0-18.6-4.7-22.3-19.5
		l0,0l-26.1-95.9h-11.2l48.4,181.5h-48.4v127.5c0,10.2-3.7,16.8-7.4,19.5C299.3,509.2,293.7,512,287.2,512z M254.6,96.8
		c-26.1,0-46.5-21.4-46.5-48.4S229.5,0,254.6,0s46.5,21.4,46.5,48.4S280.7,96.8,254.6,96.8z"/>
</g>
</svg>
